<svg width="500" height="500" version="1.1" viewBox="0 0 500 500" xmlns="http://www.w3.org/2000/svg">
	<rect width="500" height="500" fill="#ffd500" fill-rule="evenodd" style="paint-order:normal"/>
	<g transform="matrix(.713 0 0 .713 -153 -95)" fill="#998000" stroke-width="1.4">
		<path d="m519 346a10 10 0 0 0-6.68 2.56l-38.1 34.2v-11.4c-1.8e-4 -2.73-1.11-5.33-3.08-7.22l-9.13-8.75c-1.86-1.78-4.34-2.78-6.92-2.78h-25c-2.58-3.6e-4 -5.06 0.995-6.92 2.78l-9.13 8.75c-1.97 1.89-3.08 4.49-3.08 7.22v13.6c-20.5 4.2-36.1 22.5-36.1 44.2v147c0 24.8 20.3 45.1 45.1 45.1h283c24.8 0 45.1-20.3 45.1-45.1v-147c0-24.8-20.3-45.1-45.1-45.1h-52.9l-39.5-35.4a10 10 0 0 0-6.68-2.56h-42.4zm3.83 20h77.1l39.5 35.4a10 10 0 0 0 6.68 2.56h56.7c14.1 0 25.1 11 25.1 25.1v147c0 14.1-11 25.1-25.1 25.1h-283c-14.1 0-25.1-11-25.1-25.1v-147c0-14.1 11-25.1 25.1-25.1h56.7a10 10 0 0 0 6.68-2.56zm-88.8 6.58h17l3.14 3.01v8.41h-23.3v-8.41zm121 24.5c-54.7-1e-5 -99.3 44.6-99.3 99.3 1e-5 54.7 44.6 99.3 99.3 99.3 54.7 0 99.3-44.6 99.3-99.3 1e-5 -54.7-44.6-99.3-99.3-99.3zm0 20c43.9 0 79.3 35.4 79.3 79.3-1e-5 43.9-35.4 79.3-79.3 79.3-43.9 1e-5 -79.3-35.4-79.3-79.3-1e-5 -43.9 35.4-79.3 79.3-79.3zm103 5.99a5 5 0 0 0-5 5v32.8a5 5 0 0 0 5 5h57.1a5 5 0 0 0 5-5v-32.8a5 5 0 0 0-5-5zm-103 3.18c-38.7 0-70.2 31.5-70.2 70.2 0 38.7 31.5 70.2 70.2 70.2 38.7-1e-5 70.2-31.5 70.2-70.2 0-38.7-31.5-70.2-70.2-70.2zm108 6.82h47.1v22.8h-47.1zm-108 3.18c33.3 1e-5 60.2 26.9 60.2 60.2 0 33.3-26.9 60.2-60.2 60.2-33.3 0-60.2-26.9-60.2-60.2 0-33.3 26.9-60.2 60.2-60.2z" color="#000000" color-rendering="auto" dominant-baseline="auto" image-rendering="auto" shape-rendering="auto" solid-color="#000000" style="font-feature-settings:normal;font-variant-alternates:normal;font-variant-caps:normal;font-variant-ligatures:normal;font-variant-numeric:normal;font-variant-position:normal;isolation:auto;mix-blend-mode:normal;paint-order:normal;shape-padding:0;text-decoration-color:#000000;text-decoration-line:none;text-decoration-style:solid;text-indent:0;text-orientation:mixed;text-transform:none;white-space:normal"/>
		<path transform="translate(0,87)" d="m566 116a280 280 0 0 0-280 280 280 280 0 0 0 280 280 280 280 0 0 0 280-280 280 280 0 0 0-280-280zm0 46.2a234 234 0 0 1 148 53.2l-329 329a234 234 0 0 1-53.2-148 234 234 0 0 1 234-234zm181 85.9a234 234 0 0 1 53.2 148 234 234 0 0 1-234 234 234 234 0 0 1-148-53.2z" fill-rule="evenodd" style="paint-order:normal"/>
	</g>
</svg>
