<svg width="538.67" height="278.91" version="1.1" viewBox="0 0 538.67 278.91" xmlns="http://www.w3.org/2000/svg" xmlns:xlink="http://www.w3.org/1999/xlink">
    <defs>
        <radialGradient id="radialGradient3765" cx="402.78" cy="217.12" r="282.83" gradientTransform="matrix(.88834 0 0 .22582 -88.478 127.32)" gradientUnits="userSpaceOnUse">
            <stop stop-color="#fff" stop-opacity=".8" offset=".32796"/>
            <stop stop-color="#fff" stop-opacity="0" offset="1"/>
        </radialGradient>
        <filter id="filter3800" x="-.084741" y="-.39742" width="1.1695" height="1.7948" color-interpolation-filters="sRGB">
            <feGaussianBlur stdDeviation="8"/>
        </filter>
        <g id="text" transform="translate(-133.45 -40.771)" >
            <path d="m190.37 195.77-0.46875-3.1875q-0.23438-1.5469-0.23438-1.7344 0-0.46875 0.70313-0.79688l7.9219-3.7031q0.1875-0.0937 0.42188-0.0937 0.65625 0 0.84375 0.84375l12.75 63.562q0.32812 1.7344 0.79687 2.4844 0.51563 0.75 1.9219 1.5938 1.0781 0.65625 1.0781 1.5v2.0625q0 1.125-0.89062 1.125h-15.656q-1.2656 0-1.2656-1.125v-2.0625q0-1.0781 1.5-1.8281 1.8281-0.98438 1.8281-2.6719 0-0.46875-0.0937-1.0781l-1.9688-9.7969h-12.234l-1.9688 9.4219q-0.14062 0.60937-0.14062 0.89062 0 1.4062 2.1094 3.0938 1.3594 1.125 1.3594 1.9688v2.0625q0 1.125-1.3594 1.125h-9.7969q-1.6406 0-1.6406-1.125v-2.4375q0-0.98437 1.0312-1.5938 1.9219-1.1719 2.5312-3.9844zm3.1875 15.047-4.875 24.047h9.6094z"/>
            <path d="m250.84 242.56q0 8.3906-4.2656 13.125-4.2656 4.7344-11.156 4.7344-6.8906 0-11.297-4.6875t-4.4062-12.281v-48.234q0-2.3906-1.7812-3.6094-1.2188-0.84375-1.2188-1.9219v-2.0625q0-1.0781 1.2188-1.0781h14.625q1.0312 0 1.0312 0.98437v2.1562q0 1.0781-1.2188 1.9219-1.7812 1.2188-1.7812 3.6094v48.75q0 9.75 6.4688 9.75 7.0781 0 7.0781-11.438v-47.062q0-2.3906-1.7812-3.6094-1.2188-0.84375-1.2188-1.9219v-2.0625q0-1.0781 1.2188-1.0781h10.453q1.0312 0 1.0312 0.98437v2.1562q0 1.0781-1.2188 1.9219-1.7812 1.2188-1.7812 3.6094z"/>
            <path d="m291.09 217.11q18.938 6 18.938 24 0 7.8125-3.75 13.938-3.6875 6.125-10.438 8.9375t-13.5 2.8125h-19.188q-1.125 0-1.125-1.1875v-3.0625q0-1.3125 1.625-2.5 2.4375-1.6875 2.4375-4.875v-74q0-3.3125-2.4375-4.875-1.625-1-1.625-2.5v-2.875q0-1.3125 1.5625-1.3125h19.938q11.125 0 17.875 6.625 6.8125 6.5625 6.8125 17 0 7.375-3.875 13.875-3.8125 6.4375-13.25 10zm-10.562-39.812v36.25q13.312 0 13.312-18.125 0-6.75-1.8125-11.062-1.8125-4.375-4.4375-5.6875-2.625-1.375-7.0625-1.375zm0 43.438v38.688q5.25-0.1875 8.3125-1.875 3.125-1.6875 4.75-5.75 1.625-4.125 1.625-11.062 0-10-3.4375-14.938-3.375-5-11.25-5.0625z"/>
            <path d="m335.12 260.41q-9.7969 0-14.625-9.8438-4.7812-9.8438-4.7812-27.234 0-17.391 4.8281-27.562 4.875-10.219 14.109-10.219 8.6719 0 13.734 9.4219 5.1094 9.375 5.1094 27.797 0 18.797-5.0625 28.219-5.0156 9.4219-13.312 9.4219zm-0.51563-5.0625q2.1094 0 3.8438-2.7188 1.7812-2.7188 2.5312-14.906t0.75-22.359q0-9.1875-1.125-15.094-1.125-5.9531-2.4375-7.6406-1.3125-1.7344-3.375-1.7344-1.7344 0-3.1406 1.3125-1.3594 1.3125-2.1562 4.7344-0.75 3.375-1.3594 13.266-0.5625 9.8906-0.5625 20.531 0 13.266 1.7344 18.938 1.7344 5.6719 5.2969 5.6719z"/>
            <path d="m385.56 225.91v-30.703q0-2.3906-1.7812-3.6094-1.2188-0.79688-1.2188-1.9219v-2.0625q0-1.0781 1.2188-1.0781h10.594q1.0312 0 1.0312 0.98437v2.1562q0 1.0781-1.1719 1.9219-1.8281 1.2656-1.8281 3.6094v63.047q0 1.5-1.3594 1.5h-2.0625q-1.4062 0-1.9688-1.5l-19.406-51.094v43.547q0 2.4375 1.8281 3.6562 1.2188 0.79688 1.2188 1.875v2.1094q0 1.0781-1.2188 1.0781h-10.547q-1.0312 0-1.0312-0.98437v-2.2031q0-1.0312 1.2188-1.875 1.7812-1.2656 1.7812-3.6562v-55.5q0-2.3906-1.7812-3.6094-1.2188-0.79688-1.2188-1.9219v-2.0625q0-1.0781 1.2188-1.0781h9.9375q1.0781 0 1.4531 0.28125 0.375 0.23437 0.75 1.2188z"/>
            <path d="m424.14 221.3v33.875q0 3.25 2.375 4.875 1.625 1.0625 1.625 2.5v2.8125q0 1.4375-1.625 1.4375h-19.5q-1.375 0-1.375-1.3125v-2.9375q0-1.375 1.625-2.5 2.375-1.6875 2.375-4.875v-74q0-3.1875-2.375-4.8125-1.625-1.0625-1.625-2.5625v-2.75q0-1.4375 1.625-1.4375h16.375q13.875 0 21.125 6.25t7.25 18.062q0 18.812-17.438 24.312 5.125 2.5 7.75 5.6875 2.6875 3.125 4.125 9.25l4.5625 19.812q0.875 3.8125 1.6875 5.1875 0.875 1.3125 2.8125 2.5 0.5625 0.375 0.5625 1.1875v3.5625q0 1.375-1.375 1.375h-12.5q-1.8125 0-2.3125-2l-8.5-34.375q-1.375-5.6875-3.0625-7.375-1.625-1.6875-4.1875-1.75zm0-44.125v36.688q6.75 0 9.9375-4.25t3.1875-15.125q0-10.625-3.25-13.938-3.1875-3.375-9.875-3.375z"/>
            <path d="m472.21 195.77-0.46875-3.1875q-0.23438-1.5469-0.23438-1.7344 0-0.46875 0.70313-0.79688l7.9219-3.7031q0.1875-0.0937 0.42188-0.0937 0.65625 0 0.84375 0.84375l12.75 63.562q0.32812 1.7344 0.79687 2.4844 0.51563 0.75 1.9219 1.5938 1.0781 0.65625 1.0781 1.5v2.0625q0 1.125-0.89062 1.125h-15.656q-1.2656 0-1.2656-1.125v-2.0625q0-1.0781 1.5-1.8281 1.8281-0.98438 1.8281-2.6719 0-0.46875-0.0937-1.0781l-1.9688-9.7969h-12.234l-1.9688 9.4219q-0.14062 0.60937-0.14062 0.89062 0 1.4062 2.1094 3.0938 1.3594 1.125 1.3594 1.9688v2.0625q0 1.125-1.3594 1.125h-9.7969q-1.6406 0-1.6406-1.125v-2.4375q0-0.98437 1.0312-1.5938 1.9219-1.1719 2.5312-3.9844zm3.1875 15.047-4.875 24.047h9.6094z"/>
            <path d="m522.09 222.16q14.203 4.5 14.203 18 0 5.8594-2.8125 10.453-2.7656 4.5938-7.8281 6.7031-5.0625 2.1094-10.125 2.1094h-14.391q-0.84375 0-0.84375-0.89062v-2.2969q0-0.98437 1.2188-1.875 1.8281-1.2656 1.8281-3.6562v-55.5q0-2.4844-1.8281-3.6562-1.2188-0.75-1.2188-1.875v-2.1562q0-0.98437 1.1719-0.98437h14.953q8.3438 0 13.406 4.9688 5.1094 4.9219 5.1094 12.75 0 5.5312-2.9062 10.406-2.8594 4.8281-9.9375 7.5zm-7.9219-29.859v27.188q9.9844 0 9.9844-13.594 0-5.0625-1.3594-8.2969-1.3594-3.2812-3.3281-4.2656-1.9688-1.0312-5.2969-1.0312zm0 32.578v29.016q3.9375-0.14062 6.2344-1.4062 2.3438-1.2656 3.5625-4.3125 1.2188-3.0938 1.2188-8.2969 0-7.5-2.5781-11.203-2.5312-3.75-8.4375-3.7969z"/>
            <path d="m552.6 195.77-0.46875-3.1875q-0.23437-1.5469-0.23437-1.7344 0-0.46875 0.70312-0.79688l7.9219-3.7031q0.1875-0.0937 0.42187-0.0937 0.65625 0 0.84375 0.84375l12.75 63.562q0.32813 1.7344 0.79688 2.4844 0.51562 0.75 1.9219 1.5938 1.0781 0.65625 1.0781 1.5v2.0625q0 1.125-0.89063 1.125h-15.656q-1.2656 0-1.2656-1.125v-2.0625q0-1.0781 1.5-1.8281 1.8281-0.98438 1.8281-2.6719 0-0.46875-0.0937-1.0781l-1.9688-9.7969h-12.234l-1.9688 9.4219q-0.14063 0.60937-0.14063 0.89062 0 1.4062 2.1094 3.0938 1.3594 1.125 1.3594 1.9688v2.0625q0 1.125-1.3594 1.125h-9.7969q-1.6406 0-1.6406-1.125v-2.4375q0-0.98437 1.0312-1.5938 1.9219-1.1719 2.5312-3.9844zm3.1875 15.047-4.875 24.047h9.6094z"/>
            <path d="m594.56 250.71q0 2.4375 1.7812 3.6562 1.2188 0.79688 1.2188 1.875v2.1094q0 1.0781-1.2188 1.0781h-14.625q-1.0312 0-1.0312-0.98437v-2.2031q0-1.0312 1.2188-1.875 1.7812-1.2656 1.7812-3.6562v-55.5q0-2.3906-1.7812-3.6094-1.2188-0.79688-1.2188-1.9219v-2.0625q0-1.0781 1.2188-1.0781h14.625q1.0312 0 1.0312 0.98437v2.1562q0 1.0781-1.2188 1.9219-1.7812 1.2656-1.7812 3.6094z"/>
            <path d="m605.39 259.43h-2.3438q-1.1719 0-1.1719-1.2656v-17.672q0-1.7812 1.2656-1.7812h2.0156q0.79687 0 1.0312 0.5625 0.28125 0.51563 0.75 3.7031 1.9219 12.281 8.7656 12.281 3.5625 0 5.5781-3.0938 2.0625-3.0938 2.0625-7.5 0-4.5469-2.2031-8.4375-2.1562-3.8906-8.3906-10.5-4.8281-5.0625-6.8906-7.8281-2.0156-2.8125-3.2812-6.3281-1.2188-3.5156-1.2188-7.7344 0-7.7812 3.8906-12.797 3.9375-5.0156 9.5625-5.0156 2.5781 0 5.5312 1.4531 1.3125 0.65625 1.7812 0.65625t1.0312-0.375q0.5625-0.32813 1.4062-0.32813h1.7344q1.3594 0 1.3594 1.2656v15.516q0 1.1719-1.0312 1.1719h-2.1562q-0.84375 0-1.125-0.42188-0.23438-0.46875-0.89063-3.4219-2.2031-10.172-7.1719-10.172-2.6719 0-4.3125 2.25-1.5938 2.25-1.5938 5.2031 0 3.4219 1.875 7.0312 1.9219 3.5625 7.5938 9.375 7.2656 7.4531 10.031 13.125 2.8125 5.625 2.8125 12.234 0 8.9062-4.6875 14.484-4.6406 5.5781-11.062 5.5781-2.8594 0-6.7031-1.5-1.2188-0.51562-1.7344-0.51562-0.46875 0-1.2188 0.46875-0.5625 0.32812-0.89063 0.32812z"/>
        </g>
    </defs>
    <style>
        .cadre {
            fill: hsl(219, 30%, 25%); 
        }
        .text {
            fill: hsl(219, 100%, 10%);
        }
    </style>
    <g>
        <rect x="18.08" y="112.48" width="502.51" height="127.74" fill="url(#radialGradient3765)" stop-color="#000000" style="-inkscape-stroke:none"/>
        <g class="cadre">
            <path fill="#147090" d="m269.26 17.66a183 183 0 0 0-118.08 43.375h236.3a183 183 0 0 0-118.22-43.375zm-17.873 9.8125 3.3535 6.7969 7.502 1.0898-5.4277 5.291 1.2813 7.4707-6.709-3.5273-6.709 3.5273 1.2812-7.4707-5.4277-5.291 7.5-1.0898zm35.893 0 3.3555 6.7969 7.5 1.0898-5.4277 5.291 1.2812 7.4707-6.709-3.5273-6.709 3.5273 1.2812-7.4707-5.4277-5.291 7.502-1.0898zm-69.08 7.1484 2.5176 5.1016 5.6309 0.81836-4.0742 3.9727 0.96094 5.6074-5.0352-2.6484-5.0371 2.6484 0.96094-5.6074-4.0742-3.9727 5.6309-0.81836zm102.27 0 2.5195 5.1016 5.6309 0.81836-4.0742 3.9727 0.96094 5.6074-5.0371-2.6484-5.0352 2.6484 0.96094-5.6074-4.0742-3.9727 5.6309-0.81836zm-130.14 8.9648 1.7109 3.4688 3.8281 0.55664-2.7695 2.6992 0.65234 3.8105-3.4219-1.7988-3.4238 1.7988 0.6543-3.8105-2.7695-2.6992 3.8281-0.55664zm158.01 0 1.7109 3.4688 3.8281 0.55664-2.7695 2.6992 0.6543 3.8105-3.4238-1.7988-3.4219 1.7988 0.65234-3.8105-2.7695-2.6992 3.8281-0.55664z"/>
            <path d="m269.33 0c-53.037 0.13559-103.7 21.331-141.04 58.67 0.59022-1.3122 0.92578-2.7647 0.92578-4.2969 0-5.7954-4.6987-10.492-10.494-10.492-3.0714 1e-6 -5.8817 1.2732-7.8633 3.4375-9.8284 10.735-23.807 17.549-39.414 17.549h-71.447v12.936h538.67v-12.936h-71.447c-15.607 0-29.586-6.8141-39.414-17.549-1.9816-2.1643-4.7919-3.4375-7.8633-3.4375-5.7954-1e-6 -10.494 4.6967-10.494 10.492 0 1.5306 0.33474 2.9818 0.92383 4.293-37.338-37.336-88.002-58.53-141.04-58.666zm0 10.229c49.765 0.09769 97.505 19.716 132.96 54.639h-265.08c35.248-34.721 82.649-54.323 132.12-54.639z"/>
            <path fill="#998000" d="m181.28 255.8a183 183 0 0 0 88.057 23.109 183 183 0 0 0 88.055-23.109zm88.057 1.2305 3.3535 6.7969 7.502 1.0898-5.4297 5.291 1.2832 7.4707-6.709-3.5273-6.709 3.5273 1.2812-7.4707-5.4297-5.291 7.5-1.0898z"/>
            <path d="m6.5007 81.803h525.66v15.102h-525.66z" stop-color="#000000" stroke-width=".1"/>
            <path d="m6.5 100.9v150.9h525.67v-150.9zm3.5 3.5h518.67v143.9h-518.67v-143.4zm1 1v141.9h516.67v-141.9zm7.0801 7.0801h502.51v127.74h-502.51zm3.5 3.5v120.74h495.51v-120.74zm1 1h493.51v118.74h-493.51z" stop-color="#000000" stroke-width=".1"/>
        </g>
        <use fill="#fffa" stroke="#fffa" stroke-width="15" filter="url(#filter3800)"  xlink:href="#text"/>
        <use class="text"  xlink:href="#text"/>
    </g>
</svg>
